<svg width="30" height="30" viewBox="0 0 30 30" fill="none" xmlns="http://www.w3.org/2000/svg">
<g id="&#240;&#159;&#167;&#160; 01-atom / 01-icones / 02-user">
<path id="Combined Shape" fill-rule="evenodd" clip-rule="evenodd" d="M19.8491 8.74083C19.8491 6.03792 17.8892 3.83884 15.48 3.83884C13.0708 3.83884 11.1109 6.03792 11.1109 8.74083C11.1109 11.4437 13.0708 13.6426 15.48 13.6426C17.8892 13.6426 19.8491 11.4437 19.8491 8.74083ZM21.72 8.74083C21.72 12.4577 18.9208 15.4815 15.48 15.4815C12.0392 15.4815 9.24 12.4577 9.24 8.74083C9.24 5.02379 12.0392 2 15.48 2C18.9208 2 21.72 5.02379 21.72 8.74083ZM15.3649 18.8281C7.66508 18.8281 5.5883 23.8668 5.04629 26.0978H25.0442C24.7054 23.9255 23.0878 18.8281 15.3649 18.8281ZM15.3649 16.9259C21.3318 16.9259 24.1869 19.6727 25.5311 21.977C26.9832 24.466 27 26.9447 27 27.0489C27 27.5743 26.5823 28 26.0668 28H3.93315C3.6726 28 3.4238 27.8889 3.24705 27.6938C3.07049 27.4984 2.98183 27.2367 3.00311 26.9721C3.01132 26.8682 3.22409 24.4018 4.86263 21.9305C7.60479 17.7943 12.0874 16.9259 15.3649 16.9259Z" fill="#D9344A"/>
</g>
</svg>
