<svg width="30" height="30" viewBox="0 0 30 30" fill="none" xmlns="http://www.w3.org/2000/svg">
<g id="&#240;&#159;&#167;&#160; 01-atom / 01-icones / 42-info">
<path id="Combined Shape" fill-rule="evenodd" clip-rule="evenodd" d="M2 15C2 7.83488 7.83488 2 15 2C22.1651 2 28 7.83488 28 15C28 22.1651 22.1651 28 15 28C7.83488 28 2 22.1651 2 15ZM5.32558 15C5.32558 20.336 9.66395 24.6744 15 24.6744C20.336 24.6744 24.6744 20.336 24.6744 15C24.6744 9.66395 20.336 5.32558 15 5.32558C9.66395 5.32558 5.32558 9.66395 5.32558 15ZM15 7.2907C13.8738 7.2907 12.9593 8.20523 12.9593 9.3314C12.9593 10.4576 13.8738 11.3721 15 11.3721C16.1262 11.3721 17.0407 10.4576 17.0407 9.3314C17.0407 8.20523 16.1262 7.2907 15 7.2907ZM13.3372 14.2442C13.3372 13.3297 14.0855 12.5814 15 12.5814C15.9145 12.5814 16.6628 13.3297 16.6628 14.2442V21.0465C16.6628 21.961 15.9145 22.7093 15 22.7093C14.0855 22.7093 13.3372 21.961 13.3372 21.0465V14.2442Z" fill="#D9344A"/>
</g>
</svg>
